<?xml version="1.0" encoding="UTF-8" standalone="no"?>
<!-- Created with Inkscape (http://www.inkscape.org/) -->

<svg
   width="99.218445mm"
   height="62.754459mm"
   viewBox="0 0 99.218445 62.754459"
   version="1.1"
   id="svg277312"
   inkscape:version="1.1.2 (0a00cf5339, 2022-02-04)"
   sodipodi:docname="perceptron.svg"
   xmlns:inkscape="http://www.inkscape.org/namespaces/inkscape"
   xmlns:sodipodi="http://sodipodi.sourceforge.net/DTD/sodipodi-0.dtd"
   xmlns="http://www.w3.org/2000/svg"
   xmlns:svg="http://www.w3.org/2000/svg">
  <sodipodi:namedview
     id="namedview277314"
     pagecolor="#ffffff"
     bordercolor="#666666"
     borderopacity="1.0"
     inkscape:pageshadow="2"
     inkscape:pageopacity="0.0"
     inkscape:pagecheckerboard="0"
     inkscape:document-units="mm"
     showgrid="false"
     fit-margin-top="0"
     fit-margin-left="0"
     fit-margin-right="0"
     fit-margin-bottom="0"
     showborder="false"
     inkscape:zoom="0.64052329"
     inkscape:cx="253.69882"
     inkscape:cy="77.280562"
     inkscape:window-width="1920"
     inkscape:window-height="1016"
     inkscape:window-x="0"
     inkscape:window-y="0"
     inkscape:window-maximized="1"
     inkscape:current-layer="layer1" />
  <defs
     id="defs277309" />
  <g
     inkscape:label="Layer 1"
     inkscape:groupmode="layer"
     id="layer1"
     transform="translate(-37.962403,-128.06923)">
    <path
       id="rect271074"
       style="display:inline;fill:#42484a;fill-opacity:1;stroke:none;stroke-width:4.99999;stroke-linecap:round;stroke-miterlimit:4;stroke-dasharray:none;stroke-opacity:1"
       d="m 114.15796,151.87097 v 15.15101 h 10.78797 l 5.92987,-7.57473 -5.92934,-7.57628 z m 15.86726,0 5.93037,7.57628 -5.92987,7.57473 h 7.15513 v -15.15101 z" />
    <path
       id="path171023"
       style="display:inline;fill:#42484a;fill-opacity:1;stroke:none;stroke-width:2;stroke-linecap:round;stroke-miterlimit:4;stroke-dasharray:none;stroke-opacity:1"
       d="m 69.338989,129.06926 a 30.37723,30.37723 0 0 0 -26.307438,15.18874 30.37723,30.37723 0 0 0 0,30.37696 30.37723,30.37723 0 0 0 26.307438,15.18873 v -22.80171 h 1.241785 l 5.929871,-7.57473 -5.929355,-7.57628 h -1.242301 z m 23.022885,0 v 22.80171 h -7.155119 l 5.928836,7.57628 -5.92832,7.57473 h 7.154603 v 22.80171 a 30.37723,30.37723 0 0 0 26.307436,-15.18873 30.37723,30.37723 0 0 0 0,-30.37696 30.37723,30.37723 0 0 0 -26.307436,-15.18874 z m -16.701823,22.80171 5.930387,7.57628 -5.929871,7.57473 h 4.466911 l 5.92987,-7.57473 -5.929352,-7.57628 z" />
    <text
       xml:space="preserve"
       style="font-style:normal;font-weight:normal;font-size:20.9169px;line-height:1.25;font-family:sans-serif;display:inline;fill:#c0bab2;fill-opacity:1;stroke:none;stroke-width:0.264583"
       x="51.044979"
       y="165.55417"
       id="text235346"><tspan
         sodipodi:role="line"
         id="tspan235344"
         style="font-style:normal;font-variant:normal;font-weight:bold;font-stretch:normal;font-size:20.9169px;font-family:Ubuntu;-inkscape-font-specification:'Ubuntu, Bold';font-variant-ligatures:normal;font-variant-caps:normal;font-variant-numeric:normal;font-variant-east-asian:normal;fill:#c0bab2;fill-opacity:1;stroke-width:0.264583"
         x="51.044979"
         y="165.55417">∑</tspan></text>
    <text
       xml:space="preserve"
       style="font-style:normal;font-weight:normal;font-size:20.9169px;line-height:1.25;font-family:sans-serif;display:inline;fill:#c0bab2;fill-opacity:1;stroke:none;stroke-width:0.264583"
       x="98.816978"
       y="165.55417"
       id="text247239"><tspan
         sodipodi:role="line"
         id="tspan247237"
         style="font-style:normal;font-variant:normal;font-weight:bold;font-stretch:normal;font-size:20.9169px;font-family:Ubuntu;-inkscape-font-specification:'Ubuntu, Bold';font-variant-ligatures:normal;font-variant-caps:normal;font-variant-numeric:normal;font-variant-east-asian:normal;fill:#c0bab2;fill-opacity:1;stroke-width:0.264583"
         x="98.816978"
         y="165.55417">f</tspan></text>
    <path
       style="display:inline;opacity:1;fill:none;fill-opacity:1;stroke:#ff0000;stroke-width:2;stroke-linecap:butt;stroke-miterlimit:4;stroke-dasharray:none;stroke-opacity:1"
       id="path248285"
       sodipodi:type="arc"
       sodipodi:cx="-92.361748"
       sodipodi:cy="159.44646"
       sodipodi:rx="30.37723"
       sodipodi:ry="30.37723"
       sodipodi:start="1.5707963"
       sodipodi:end="4.712389"
       sodipodi:arc-type="arc"
       transform="scale(-1,1)"
       sodipodi:open="true"
       d="m -92.361748,189.82369 a 30.37723,30.37723 0 0 1 -26.307452,-15.18862 30.37723,30.37723 0 0 1 0,-30.37723 30.37723,30.37723 0 0 1 26.307452,-15.18861" />
    <path
       style="display:inline;opacity:1;fill:none;fill-opacity:1;stroke:#ff0000;stroke-width:2;stroke-linecap:butt;stroke-miterlimit:4;stroke-dasharray:none;stroke-opacity:1"
       id="path248513"
       sodipodi:type="arc"
       sodipodi:cx="69.339027"
       sodipodi:cy="159.44646"
       sodipodi:rx="30.37723"
       sodipodi:ry="30.37723"
       sodipodi:start="1.5707963"
       sodipodi:end="4.712389"
       sodipodi:arc-type="arc"
       sodipodi:open="true"
       d="m 69.339027,189.82369 a 30.37723,30.37723 0 0 1 -26.307452,-15.18862 30.37723,30.37723 0 0 1 0,-30.37723 30.37723,30.37723 0 0 1 26.307452,-15.18861" />
  </g>
</svg>
